<svg width="24" height="24" viewBox="0 0 24 24" fill="none" xmlns="http://www.w3.org/2000/svg">
    <path d="M12.0007 18.26L11.1907 17.55C7.2007 14.04 4.5007 11.64 4.5007 8.79C4.5007 6.48 6.3907 4.59 8.7007 4.59C10.0007 4.59 11.2607 5.19 12.0007 6.15C12.7407 5.19 14.0007 4.59 15.3007 4.59C17.6107 4.59 19.5007 6.48 19.5007 8.79C19.5007 11.64 16.8007 14.04 12.8107 17.55L12.0007 18.26Z" fill="#F43F5E"/>
    <path d="M19 2L18.25 4.75L15.5 5.5L18.25 6.25L19 9L19.75 6.25L22.5 5.5L19.75 4.75L19 2Z" fill="#FBBF24"/>
</svg>
