<svg width="112" height="112" viewBox="0 0 112 112" fill="none" xmlns="http://www.w3.org/2000/svg">
    <circle cx="56" cy="56" r="56" fill="#F3F4F6"/>
    <path d="M72 88.2198C72 78.711 64.8366 71.0396 56 71.0396C47.1634 71.0396 40 78.711 40 88.2198V92H72V88.2198Z" fill="#A5B4FC"/>
    <circle cx="56" cy="52" r="16" fill="#FBCFE8"/>
    <path d="M68 44.3431C69.6569 46 69.6569 48.5355 68 50.1924L62.1924 56L56 50.1924L68 44.3431Z" fill="#4338CA"/>
    <path d="M44 44.3431C42.3431 46 42.3431 48.5355 44 50.1924L49.8076 56L56 50.1924L44 44.3431Z" fill="#4338CA"/>
    <path d="M40 54C40 45.1634 47.1634 38 56 38C64.8366 38 72 45.1634 72 54H40Z" fill="#374151"/>
    <path d="M59.3333 76.3333C59.3333 74.4924 57.8409 73 56 73C54.1591 73 52.6667 74.4924 52.6667 76.3333" stroke="#4338CA" stroke-width="2" stroke-linecap="round"/>
</svg>
