<svg xmlns="http://www.w3.org/2000/svg" width="128" height="80" viewBox="0 0 128 80" fill="none">
    <path d="M24 40C24 53.2548 35.7452 64 49 64H79C92.2548 64 104 53.2548 104 40V36H24V40Z" fill="#F1F5F9"/>
    <path d="M28 64H100C102.209 64 104 65.7909 104 68V72H24V68C24 65.7909 25.7909 64 28 64Z" fill="#E2E8F0"/>
    <path d="M76.9687 42.4844C77.5898 40.5469 76.5156 38.9375 74.5781 38.625C72.9687 38.3125 71.5156 39.3867 70.7422 40.7812C69.3476 43.1016 69.5039 46.0469 70.7422 48.0859C71.3633 49.1602 72.4375 50.0781 73.6758 50.3906C74.0898 50.3906 74.3515 50.5469 74.5781 50.8594C75.0469 51.4805 74.9375 52.4531 74.2109 53.0742C73.1367 53.9922 73.1367 55.4453 74.2109 56.3633C74.9375 56.9844 75.9101 56.8281 76.5312 56.0547C77.0547 55.3828 77.0547 54.4023 76.5312 53.6836C76.1719 53.2227 75.9101 52.7617 75.9101 52.1406C75.9101 50.8594 76.8281 49.7852 78.1094 49.4727C79.8047 49.1602 81.5 50.2344 82.1211 51.9297L82.2773 52.4531C82.4336 52.8672 82.8476 53.1797 83.3711 53.1797C84.3437 53.1797 85.0156 52.2969 84.6562 51.4805C83.9297 49.6367 82.2773 48.2422 80.2383 47.7812C78.0312 47.3125 76.0937 47.9336 74.7344 49.3281L77.125 45.457C77.8515 44.2187 77.5312 42.8242 76.9687 42.4844Z" fill="#F43F5E"/>
    <path d="M48 48H52V52H48V48Z" fill="#16A34A"/>
    <path d="M42 50H46V54H42V50Z" fill="#16A34A"/>
</svg>